<svg width="48" height="48" viewBox="0 0 48 48" fill="none" xmlns="http://www.w3.org/2000/svg">
<rect width="48" height="48" rx="24" fill="#2196F3" fill-opacity="0.04"/>
<g clip-path="url(#clip0_24_8196)">
<path d="M15.9 24C15.9 22.29 17.29 20.9 19 20.9H23V19H19C16.24 19 14 21.24 14 24C14 26.76 16.24 29 19 29H23V27.1H19C17.29 27.1 15.9 25.71 15.9 24ZM20 25H28V23H20V25ZM29 19H25V20.9H29C30.71 20.9 32.1 22.29 32.1 24C32.1 25.71 30.71 27.1 29 27.1H25V29H29C31.76 29 34 26.76 34 24C34 21.24 31.76 19 29 19Z" fill="#2196F3"/>
</g>
<defs>
<clipPath id="clip0_24_8196">
<rect width="24" height="24" fill="white" transform="translate(12 12)"/>
</clipPath>
</defs>
</svg>
