<svg width="29" height="9" viewBox="0 0 29 9" fill="none" xmlns="http://www.w3.org/2000/svg">
  <path
    d="M6.061 6.79V8H0.385V7.043L3.443 4.139C3.78767 3.809 4.01867 3.523 4.136 3.281C4.26067 3.03167 4.323 2.786 4.323 2.544C4.323 2.18467 4.202 1.90967 3.96 1.719C3.718 1.52833 3.36233 1.433 2.893 1.433C2.10833 1.433 1.507 1.70067 1.089 2.236L0.088 1.466C0.388667 1.06267 0.792 0.751 1.298 0.531C1.81133 0.303666 2.38333 0.19 3.014 0.19C3.85 0.19 4.51733 0.388 5.016 0.784C5.51467 1.18 5.764 1.719 5.764 2.401C5.764 2.819 5.676 3.21133 5.5 3.578C5.324 3.94467 4.98667 4.36267 4.488 4.832L2.431 6.79H6.061ZM12.4633 6.79V8H6.78734V7.043L9.84534 4.139C10.19 3.809 10.421 3.523 10.5383 3.281C10.663 3.03167 10.7253 2.786 10.7253 2.544C10.7253 2.18467 10.6043 1.90967 10.3623 1.719C10.1203 1.52833 9.76468 1.433 9.29534 1.433C8.51068 1.433 7.90934 1.70067 7.49134 2.236L6.49034 1.466C6.79101 1.06267 7.19434 0.751 7.70034 0.531C8.21368 0.303666 8.78568 0.19 9.41634 0.19C10.2523 0.19 10.9197 0.388 11.4183 0.784C11.917 1.18 12.1663 1.719 12.1663 2.401C12.1663 2.819 12.0783 3.21133 11.9023 3.578C11.7263 3.94467 11.389 4.36267 10.8903 4.832L8.83334 6.79H12.4633ZM14.1467 3.886C13.8974 3.886 13.6847 3.80167 13.5087 3.633C13.3327 3.457 13.2447 3.237 13.2447 2.973C13.2447 2.70167 13.329 2.48167 13.4977 2.313C13.6737 2.14433 13.89 2.06 14.1467 2.06C14.4034 2.06 14.616 2.14433 14.7847 2.313C14.9607 2.48167 15.0487 2.70167 15.0487 2.973C15.0487 3.237 14.9607 3.457 14.7847 3.633C14.6087 3.80167 14.396 3.886 14.1467 3.886ZM14.1467 8.077C13.8974 8.077 13.6847 7.99267 13.5087 7.824C13.3327 7.648 13.2447 7.428 13.2447 7.164C13.2447 6.89267 13.329 6.67267 13.4977 6.504C13.6737 6.33533 13.89 6.251 14.1467 6.251C14.4034 6.251 14.616 6.33533 14.7847 6.504C14.9607 6.67267 15.0487 6.89267 15.0487 7.164C15.0487 7.428 14.9607 7.648 14.7847 7.824C14.6087 7.99267 14.396 8.077 14.1467 8.077ZM22.8382 6.251H21.4742V8H20.0882V6.251H15.8642V5.261L19.6592 0.299999H21.1882L17.6132 5.041H20.1322V3.49H21.4742V5.041H22.8382V6.251ZM28.7539 0.299999V1.257L25.7619 8H24.2329L27.1259 1.51H24.1009V2.819H22.7699V0.299999H28.7539Z"
    fill="white" />
</svg>