<svg width="23" height="24" viewBox="0 0 23 24" fill="none" xmlns="http://www.w3.org/2000/svg">
<g id="adornment-start" clip-path="url(#clip0_1989_333)">
<path id="Vector" d="M3.73746 12C3.73746 10.29 5.06954 8.9 6.70829 8.9H10.5416V7H6.70829C4.06329 7 1.91663 9.24 1.91663 12C1.91663 14.76 4.06329 17 6.70829 17H10.5416V15.1H6.70829C5.06954 15.1 3.73746 13.71 3.73746 12ZM7.66663 13H15.3333V11H7.66663V13ZM16.2916 7H12.4583V8.9H16.2916C17.9304 8.9 19.2625 10.29 19.2625 12C19.2625 13.71 17.9304 15.1 16.2916 15.1H12.4583V17H16.2916C18.9366 17 21.0833 14.76 21.0833 12C21.0833 9.24 18.9366 7 16.2916 7Z" fill="black" fill-opacity="0.54"/>
</g>
<defs>
<clipPath id="clip0_1989_333">
<rect width="23" height="24" fill="white"/>
</clipPath>
</defs>
</svg>
